<svg xmlns="http://www.w3.org/2000/svg" version="1.1" xmlns:xlink="http://www.w3.org/1999/xlink" xmlns:svgjs="http://svgjs.dev/svgjs" width="2000" height="424" viewBox="0 0 2000 424"><g transform="matrix(1,0,0,1,-1.2121212121212466,-2.388052983494532)"><svg viewBox="0 0 396 84" data-background-color="#89939e" preserveAspectRatio="xMidYMid meet" height="424" width="2000" xmlns="http://www.w3.org/2000/svg" xmlns:xlink="http://www.w3.org/1999/xlink"><g id="tight-bounds" transform="matrix(1,0,0,1,0.2400000000000091,0.4731048363526895)"><svg viewBox="0 0 395.52 83.05379032729464" height="83.05379032729464" width="395.52"><g><svg viewBox="0 0 646.9028545336743 135.84075152348342" height="83.05379032729464" width="395.52"><g><rect width="5.750962461807914" height="98.78433811946513" x="230.57701651739535" y="18.528206702009143" fill="#ffd700" opacity="1" stroke-width="0" stroke="transparent" fill-opacity="1" class="rect-yte-0" data-fill-palette-color="primary" rx="1%" id="yte-0" data-palette-color="#ffd700"></rect></g><g transform="matrix(1,0,0,1,251.38285453367425,18.77393888638592)"><svg viewBox="0 0 395.52 98.29287375071158" height="98.29287375071158" width="395.52"><g id="textblocktransform"><svg viewBox="0 0 395.52 98.29287375071158" height="98.29287375071158" width="395.52" id="textblock"><g><svg viewBox="0 0 395.52 63.771309046540004" height="63.771309046540004" width="395.52"><g transform="matrix(1,0,0,1,0,0)"><svg width="395.52" viewBox="2.56 -34.84 280.79 45.17" height="63.771309046540004" data-palette-color="#ffd700"><g class="wordmark-text-0" data-fill-palette-color="primary" id="text-0"><path d="M7.86-15.65L7.86-15.65Q7.86-10.42 10.17-7.4 12.48-4.37 16.92-4.37L16.92-4.37Q19.21-4.37 22.5-5.59 25.78-6.81 26.03-6.81L26.03-6.81Q27.44-6.81 27.44-5.4L27.44-5.4Q27.44-4.64 26.51-3.61 25.59-2.59 23.51-1.54L23.51-1.54Q20.14 0.15 16.53 0.15L16.53 0.15 15.77 0.15Q9.74 0.15 6.15-3.93L6.15-3.93Q4.37-5.93 3.47-9.03 2.56-12.13 2.56-15.6L2.56-15.6 2.56-16.38Q2.59-29.15 11.13-33.2L11.13-33.2Q14.01-34.57 16.92-34.57L16.92-34.57 17.63-34.57Q20.87-34.57 23.6-32.93 26.32-31.3 26.32-29.47 26.32-27.64 24.78-27.64L24.78-27.64Q24.51-27.64 21.79-28.71 19.07-29.79 16.87-29.79 14.67-29.79 12.85-28.82 11.04-27.86 10.06-26.29L10.06-26.29Q7.86-22.78 7.86-15.65ZM33.32-19.24L33.32-19.97Q33.32-21.66 33.74-22.47 34.15-23.29 35.28-23.29 36.4-23.29 37.86-22.49 39.33-21.68 39.51-21.68 39.69-21.68 40.33-22.12L40.33-22.12Q42.7-23.78 44.53-23.78L44.53-23.78 45.21-23.78Q46.34-23.78 47.1-23.17 47.87-22.56 47.87-21.45 47.87-20.34 46.9-19.82L46.9-19.82Q46.48-19.6 45.16-19.46 43.85-19.31 42.59-18.82 41.33-18.33 40.35-16.92L40.35-16.92Q38.94-14.84 38.94-8.84L38.94-8.84 38.84-6.1 38.79-4.54Q38.79-2.37 38.1-1.34 37.4-0.32 35.74-0.32L35.74-0.32 35.37-0.32Q33.91-0.32 33.59-1.81L33.59-1.81Q33.57-1.93 33.57-6.45L33.57-6.45 33.57-11.35 33.54-11.77 33.54-12.57 33.52-12.99Q33.52-13.4 33.52-13.82L33.52-13.82 33.42-16.97 33.32-19.24ZM54.12-23.05L54.12-23.05Q55.46-23.05 56.4-21.02 57.34-18.99 58.71-13.31 60.08-7.62 61.49-6.23L61.49-6.23Q62.84-6.23 64.5-10.23L64.5-10.23Q65.42-12.45 66.47-16.97 67.52-21.48 68.18-22.72 68.84-23.95 70.06-23.95L70.06-23.95 70.6-23.95Q72.14-23.95 72.14-22.31L72.14-22.31Q72.14-21.51 69.98-11.87 67.82-2.22 65.89 1.71 63.96 5.64 61.31 7.79 58.66 9.94 56.56 9.94L56.56 9.94 56.2 9.94Q54.58 9.94 54.58 8.89L54.58 8.89Q54.58 8.06 56.92 6.57 59.25 5.08 59.66 4.57L59.66 4.57Q61.15 2.73 61.15 0.73L61.15 0.73Q61.15-0.29 58.8-3.87 56.44-7.45 55.1-10.77L55.1-10.77Q51.83-18.87 51.83-21.46L51.83-21.46Q51.83-23.05 54.12-23.05ZM93.79-12.45L93.79-12.45 93.79-13.28Q93.79-17.21 92.38-19.14 90.96-21.07 88.88-21.07L88.88-21.07 88.42-21.07Q85.93-21.07 84.36-19.37 82.78-17.68 82.78-14.67L82.78-14.67 82.71-13.92 82.66-12.89 82.66-11.84 82.63-11.06 82.63-10.3Q82.63-6.05 83.42-4.88L83.42-4.88Q84.56-3.15 87.18-3.15L87.18-3.15 87.42-3.15Q90.37-3.15 92.08-5.64 93.79-8.13 93.79-12.45ZM80.46-23.41L80.46-23.41Q81.17-23.41 81.93-23.03 82.68-22.66 82.95-22.66 83.22-22.66 85.54-23.57 87.86-24.49 89.84-24.49L89.84-24.49 90.37-24.49Q92.18-24.49 93.86-23.69 95.55-22.9 96.72-21.36L96.72-21.36Q98.92-18.48 98.92-14.31L98.92-14.31 98.92-12.6Q98.92-9.94 98.06-7.32L98.06-7.32Q97.21-4.69 95.74-3.08L95.74-3.08Q92.74 0.24 87.66 0.24L87.66 0.24Q86.39 0.24 85.28 0.01 84.17-0.22 83.76-0.22L83.76-0.22Q82.56-0.22 82.56 4.98L82.56 4.98Q82.56 7.98 81.91 9.16 81.27 10.33 79.85 10.33L79.85 10.33 79.41 10.33Q78.48 10.33 78.08 9.78 77.68 9.23 77.68 7.84L77.68 7.84 77.68 7.32 77.7 6.79 77.8 2.44 77.95-3.05 78.09-11.91Q78.09-21.58 78.17-21.9L78.17-21.9Q78.53-23.41 80.46-23.41ZM108.03-2.75Q106.31-5.32 106.31-11.18 106.31-17.04 105.61-19.17L105.61-19.17Q105.31-20.04 104.45-20.73 103.58-21.41 103.58-22.56 103.58-23.71 104.51-24.41L104.51-24.41Q104.7-24.56 105.43-24.99 106.17-25.42 106.41-25.78L106.41-25.78Q106.66-26.12 106.92-28.13L106.92-28.13Q107.51-32.13 109.07-32.13L109.07-32.13 109.44-32.13Q110.68-32.13 111.2-31.13L111.2-31.13Q111.46-30.64 111.75-28.54 112.03-26.44 112.51-25.79 113-25.15 115-24.44 117.01-23.73 117.01-22.72 117.01-21.7 115.37-21.19L115.37-21.19Q112.93-20.43 112.44-19.48L112.44-19.48Q111.29-17.26 111.29-10.52L111.29-10.52Q111.29-7.4 112-6.24 112.71-5.08 113.98-4.59L113.98-4.59Q114.1-4.54 114.99-4.28 115.88-4.03 116.42-3.63 116.96-3.22 116.96-2.31 116.96-1.39 116.08-0.78L116.08-0.78Q115.15-0.17 113.49-0.17L113.49-0.17Q109.76-0.17 108.03-2.75ZM126.53-12.35L126.53-12.35 126.53-11.01Q126.53-7.37 128.03-5.33 129.53-3.3 132.04-3.3L132.04-3.3 132.29-3.32Q134.95-3.32 136.49-5.63 138.02-7.93 138.02-12.21L138.02-12.21 138.02-13.28Q138.02-16.6 136.71-18.8 135.39-21 133.02-21L133.02-21 132.31-21Q129.77-21 128.15-18.63 126.53-16.26 126.53-12.35ZM143.22-12.77L143.22-12.77 143.22-11.99Q143.22-6.42 140.2-2.98L140.2-2.98Q138.76-1.32 136.51-0.46 134.26 0.39 131.99 0.39L131.99 0.39 131.19 0.39Q126.87 0.39 124.13-3.1L124.13-3.1Q121.94-5.91 121.94-10.99L121.94-10.99 121.94-12.21Q121.98-12.99 121.98-14.26L121.98-14.26Q121.98-15.45 122.74-17.63L122.74-17.63Q124.23-21.95 127.87-23.56L127.87-23.56Q130.07-24.54 132.17-24.54L132.17-24.54 132.95-24.54Q137.8-24.54 140.78-21.07L140.78-21.07Q143.22-18.24 143.22-12.77ZM151.21-11.89L149.94-11.89Q148.47-11.89 148.47-13.18L148.47-13.18 148.47-13.89Q148.47-15.48 149.41-15.7 150.35-15.92 156.14-15.92L156.14-15.92 159.48-15.97 162.24-15.97Q163.51-15.97 163.51-14.7L163.51-14.7 163.51-13.96Q163.51-12.38 162.49-12.13L162.49-12.13Q161.75-11.96 155.65-11.96L155.65-11.96 155.28-11.96 154.72-11.94 153.62-11.94 153.06-11.91 151.96-11.91 151.21-11.89ZM191.49-9.91L191.49-9.11Q191.49-4.91 188.29-2.32 185.09 0.27 180.57 0.27 176.06 0.27 173.41-0.94 170.76-2.15 169.64-3.66L169.64-3.66Q169.12-4.37 169.12-5.1 169.12-5.83 169.71-6.45 170.3-7.06 170.93-7.06 171.56-7.06 172.74-6.47L172.74-6.47 173.88-5.86Q177.06-4.22 179.87-4.22 182.67-4.22 184.16-5.2L184.16-5.2Q186.19-6.52 186.19-8.87 186.19-11.23 184.09-12.92L184.09-12.92Q182.53-14.18 178.45-15.94 174.37-17.7 172.74-19.26L172.74-19.26Q169.9-21.97 169.9-25.93 169.9-29.88 173-32.37L173-32.37Q176.08-34.84 181.23-34.84L181.23-34.84 181.33-34.84Q184.43-34.84 186.49-33.98 188.56-33.13 189.35-32.17 190.14-31.2 190.14-30.79L190.14-30.79Q190.14-29.69 189.61-29.08 189.07-28.47 188.19-28.47L188.19-28.47Q188.07-28.47 185.42-29.52 182.77-30.57 180.09-30.57 177.4-30.57 175.84-28.76L175.84-28.76Q175.1-27.88 174.91-26.66L174.91-26.66Q174.86-26.39 174.86-26.12L174.86-26.12Q174.86-25.15 175.42-24.05L175.42-24.05Q176.37-22.27 181.65-19.93 186.92-17.6 188.61-16.02L188.61-16.02Q191.49-13.33 191.49-9.91L191.49-9.91ZM200.68-2.75Q198.95-5.32 198.95-11.18 198.95-17.04 198.25-19.17L198.25-19.17Q197.95-20.04 197.09-20.73 196.22-21.41 196.22-22.56 196.22-23.71 197.15-24.41L197.15-24.41Q197.34-24.56 198.08-24.99 198.81-25.42 199.05-25.78L199.05-25.78Q199.3-26.12 199.56-28.13L199.56-28.13Q200.15-32.13 201.71-32.13L201.71-32.13 202.08-32.13Q203.32-32.13 203.84-31.13L203.84-31.13Q204.11-30.64 204.39-28.54 204.67-26.44 205.16-25.79 205.64-25.15 207.65-24.44 209.65-23.73 209.65-22.72 209.65-21.7 208.01-21.19L208.01-21.19Q205.57-20.43 205.08-19.48L205.08-19.48Q203.94-17.26 203.94-10.52L203.94-10.52Q203.94-7.4 204.64-6.24 205.35-5.08 206.62-4.59L206.62-4.59Q206.74-4.54 207.63-4.28 208.52-4.03 209.06-3.63 209.6-3.22 209.6-2.31 209.6-1.39 208.72-0.78L208.72-0.78Q207.79-0.17 206.13-0.17L206.13-0.17Q202.4-0.17 200.68-2.75ZM226.44-14.36L226.44-14.36Q228-14.36 229.13-15.06L229.13-15.06Q229.74-15.45 229.74-16.63L229.74-16.63 229.74-16.77Q229.74-18.53 228.66-19.74 227.59-20.95 225.61-20.95L225.61-20.95 225.32-20.95Q223.1-20.95 221.23-19.29 219.36-17.63 219.36-15.09L219.36-15.09 219.36-14.67Q219.36-13.92 220.51-13.92L220.51-13.92 220.75-13.87 221.63-13.87 221.78-13.89 223.12-13.99 223.29-14.01 224.2-14.09Q224.37-14.11 224.59-14.14 224.81-14.16 225.48-14.26 226.15-14.36 226.44-14.36ZM225.15 0.27L225.15 0.27 224.59 0.27Q222.12 0.24 220.09-0.63L220.09-0.63Q216.21-2.34 214.85-6.49L214.85-6.49Q214.09-8.81 214.09-11.18L214.09-11.18 214.09-12.28Q214.11-14.75 215.04-17.19L215.04-17.19Q216.95-22.12 221.32-23.73L221.32-23.73Q223.37-24.46 225.51-24.46L225.51-24.46 226.05-24.46Q229.52-24.46 231.81-22.33 234.11-20.19 234.11-16.5L234.11-16.5 234.11-16.02Q234.11-13.43 232.45-12.38L232.45-12.38Q231.18-11.57 226.63-10.91 222.07-10.25 221.17-9.96L221.17-9.96Q219.7-9.5 219.7-8.62L219.7-8.62Q219.7-6.4 221.93-4.91L221.93-4.91Q223.22-4.05 225.95-4.05L225.95-4.05Q227.08-4.05 229.46-4.72 231.84-5.4 232.45-5.4L232.45-5.4Q233.89-5.4 233.89-3.93 233.89-2.47 231.09-1.1 228.3 0.27 225.15 0.27ZM251.34-14.36L251.34-14.36Q252.9-14.36 254.03-15.06L254.03-15.06Q254.64-15.45 254.64-16.63L254.64-16.63 254.64-16.77Q254.64-18.53 253.56-19.74 252.49-20.95 250.51-20.95L250.51-20.95 250.22-20.95Q248-20.95 246.13-19.29 244.26-17.63 244.26-15.09L244.26-15.09 244.26-14.67Q244.26-13.92 245.41-13.92L245.41-13.92 245.65-13.87 246.53-13.87 246.68-13.89 248.02-13.99 248.19-14.01 249.1-14.09Q249.27-14.11 249.49-14.14 249.71-14.16 250.38-14.26 251.05-14.36 251.34-14.36ZM250.05 0.27L250.05 0.27 249.49 0.27Q247.02 0.24 244.99-0.63L244.99-0.63Q241.11-2.34 239.75-6.49L239.75-6.49Q238.99-8.81 238.99-11.18L238.99-11.18 238.99-12.28Q239.01-14.75 239.94-17.19L239.94-17.19Q241.85-22.12 246.22-23.73L246.22-23.73Q248.27-24.46 250.41-24.46L250.41-24.46 250.95-24.46Q254.42-24.46 256.71-22.33 259.01-20.19 259.01-16.5L259.01-16.5 259.01-16.02Q259.01-13.43 257.35-12.38L257.35-12.38Q256.08-11.57 251.53-10.91 246.97-10.25 246.07-9.96L246.07-9.96Q244.6-9.5 244.6-8.62L244.6-8.62Q244.6-6.4 246.83-4.91L246.83-4.91Q248.12-4.05 250.85-4.05L250.85-4.05Q251.98-4.05 254.36-4.72 256.74-5.4 257.35-5.4L257.35-5.4Q258.79-5.4 258.79-3.93 258.79-2.47 255.99-1.1 253.2 0.27 250.05 0.27ZM283.35-2.17L283.35-2.17Q283.35-0.78 282.08-0.54L282.08-0.54Q279.9-0.12 271.97-0.12L271.97-0.12 268.31-0.07 267.11-0.07Q265.45-0.07 265.02-0.4 264.6-0.73 264.6-1.88L264.6-1.88Q264.6-4.1 270.37-11.62 276.14-19.14 276.14-20.07L276.14-20.07Q276.14-20.75 271.64-20.75 267.14-20.75 266.5-20.92L266.5-20.92Q264.89-21.36 264.89-22.62 264.89-23.88 265.62-24.21 266.35-24.54 269.55-24.54L269.55-24.54 270.8-24.58 275.09-24.58Q280.03-24.58 281.34-24.29 282.66-24 282.66-22.41 282.66-20.83 277.04-13.06 271.41-5.3 271.41-4.71L271.41-4.71Q271.41-3.86 275.29-3.86L275.29-3.86 280.86-4.03Q283.35-4.03 283.35-2.17Z" fill="#ffd700" data-fill-palette-color="primary"></path></g></svg></g></svg></g><g transform="matrix(1,0,0,1,0,78.82618460101098)"><svg viewBox="0 0 232.209792 19.466689149700596" height="19.466689149700596" width="232.209792"><g transform="matrix(1,0,0,1,0,0)"><svg width="232.209792" viewBox="2.95 -35.67 542.2099999999999 45.46" height="19.466689149700596" data-palette-color="#ffffff"><path d="M14.06 0.27L14.06 0.27Q11.82 0.27 9.11-0.31 6.4-0.88 5.3-1.53 4.2-2.17 3.58-3.36 2.95-4.54 2.95-5.63 2.95-6.71 3.47-7.31 3.98-7.91 4.59-7.91 5.2-7.91 6.87-6.52 8.54-5.13 10.22-4.42 11.89-3.71 14.38-3.71 16.87-3.71 18.43-5.03 20-6.35 20-8.76 20-11.18 17.16-13.13L17.16-13.13Q16.38-13.67 11.99-15.76 7.59-17.85 6.18-19.32 4.76-20.8 4.14-22.33 3.52-23.85 3.52-25.98L3.52-25.98Q3.52-29.83 6.76-32.37L6.76-32.37Q9.67-34.69 15.48-34.69L15.48-34.69Q19.04-34.69 21.46-33.64L21.46-33.64Q22.56-33.15 23.3-31.99 24.05-30.83 24.05-29.83L24.05-29.83Q24.05-27.49 22.51-27.49L22.51-27.49Q22.07-27.49 19.51-29.17 16.94-30.86 14.37-30.86 11.79-30.86 10.22-29.65 8.64-28.44 8.64-26.32 8.64-24.19 10.72-22.53L10.72-22.53Q11.84-21.63 16.41-19.57 20.97-17.5 22.64-15.83 24.32-14.16 24.87-12.63 25.42-11.11 25.42-9.11 25.42-7.1 24.56-5.35L24.56-5.35Q22.85-1.76 18.48-0.39L18.48-0.39Q16.41 0.27 14.23 0.27L14.23 0.27Q14.14 0.27 14.06 0.27ZM39.99-0.1L39.99-0.1 39.06-0.1Q35.54-0.1 34.01-3.13L34.01-3.13Q32.74-5.59 32.74-11.23 32.74-16.87 32.13-18.97L32.13-18.97Q31.91-19.75 30.91-20.75 29.9-21.75 29.9-22.49L29.9-22.49 29.9-22.8Q29.9-23.44 31.05-24.19 32.2-24.95 32.38-25.28 32.57-25.61 33.12-27.65 33.66-29.69 34.26-30.51 34.86-31.32 35.87-31.32 36.89-31.32 37.31-30.74 37.74-30.15 38.17-28.32 38.6-26.49 39.11-25.84 39.62-25.2 41.6-24.49 43.58-23.78 43.58-22.73L43.58-22.73Q43.58-21.8 41.51-21.07 39.45-20.34 38.91-19.26L38.91-19.26Q37.89-17.19 37.89-11.91 37.89-6.64 38.79-5.46 39.69-4.27 41.73-4 43.77-3.74 43.77-2.47L43.77-2.47Q43.77-1.49 42.61-0.79 41.45-0.1 39.99-0.1ZM60.74-14.38L60.74-14.38Q62.4-14.38 63.08-14.89 63.76-15.41 63.76-16.06L63.76-16.06 63.76-17.09Q63.76-18.85 62.47-20 61.18-21.14 59.64-21.14L59.64-21.14 59-21.14Q56.78-21.14 55.12-19.27 53.46-17.41 53.46-15.19L53.46-15.19 53.46-14.77Q53.46-13.92 55.02-13.92L55.02-13.92 55.59-13.92 55.73-13.94 57.56-14.06 58.78-14.16 59.61-14.26Q59.83-14.28 60.21-14.33 60.59-14.38 60.74-14.38ZM59.74 0.32L59.74 0.32 58.66 0.32Q53.78 0.32 50.83-2.98L50.83-2.98Q49.51-4.44 48.77-6.7 48.04-8.96 48.04-11.18L48.04-11.18 48.04-12.28Q48.04-14.5 48.97-16.94L48.97-16.94Q50.75-21.7 55.02-23.41L55.02-23.41Q57.22-24.32 59.69-24.32L59.69-24.32 60.22-24.32Q63.64-24.32 65.86-22.24L65.86-22.24Q67.13-21.04 67.78-19.37 68.43-17.7 68.43-16.36L68.43-16.36Q68.43-13.4 66.57-12.5L66.57-12.5Q65.3-11.89 60.77-11.35 56.25-10.82 55.81-10.69L55.81-10.69Q53.68-10.16 53.68-8.79L53.68-8.79Q53.68-6.42 55.85-4.83L55.85-4.83Q57.44-3.66 60.4-3.66L60.4-3.66Q61.52-3.66 64.03-4.37 66.55-5.08 66.79-5.08L66.79-5.08Q68.06-5.08 68.06-3.93L68.06-3.93Q68.06-2.49 65.34-1.09 62.62 0.32 59.74 0.32ZM85.73-14.38L85.73-14.38Q87.39-14.38 88.08-14.89 88.76-15.41 88.76-16.06L88.76-16.06 88.76-17.09Q88.76-18.85 87.47-20 86.17-21.14 84.64-21.14L84.64-21.14 84-21.14Q81.78-21.14 80.12-19.27 78.46-17.41 78.46-15.19L78.46-15.19 78.46-14.77Q78.46-13.92 80.02-13.92L80.02-13.92 80.58-13.92 80.73-13.94 82.56-14.06 83.78-14.16 84.61-14.26Q84.83-14.28 85.21-14.33 85.59-14.38 85.73-14.38ZM84.73 0.32L84.73 0.32 83.66 0.32Q78.78 0.32 75.82-2.98L75.82-2.98Q74.5-4.44 73.77-6.7 73.04-8.96 73.04-11.18L73.04-11.18 73.04-12.28Q73.04-14.5 73.97-16.94L73.97-16.94Q75.75-21.7 80.02-23.41L80.02-23.41Q82.22-24.32 84.68-24.32L84.68-24.32 85.22-24.32Q88.64-24.32 90.86-22.24L90.86-22.24Q92.13-21.04 92.78-19.37 93.43-17.7 93.43-16.36L93.43-16.36Q93.43-13.4 91.57-12.5L91.57-12.5Q90.3-11.89 85.77-11.35 81.24-10.82 80.8-10.69L80.8-10.69Q78.68-10.16 78.68-8.79L78.68-8.79Q78.68-6.42 80.85-4.83L80.85-4.83Q82.44-3.66 85.39-3.66L85.39-3.66Q86.52-3.66 89.03-4.37 91.55-5.08 91.79-5.08L91.79-5.08Q93.06-5.08 93.06-3.93L93.06-3.93Q93.06-2.49 90.34-1.09 87.61 0.32 84.73 0.32ZM99.62-33.74L99.62-33.74Q99.62-35.67 102.8-35.67L102.8-35.67 103.24-35.67Q105.51-35.67 105.8-33.79L105.8-33.79 105.8-28.49 105.75-26.66 105.75-25.76 105.68-22.97 105.68-22.07 105.65-21.58Q105.65-21.12 105.65-20.65L105.65-20.65 105.63-20.19Q105.63-19.73 105.63-19.26L105.63-19.26 105.61-18.8 105.61-16.5 105.68-13.38Q105.7-12.94 105.7-11.16 105.7-9.38 106.18-7.36 106.66-5.35 107.39-4.16 108.12-2.98 108.12-2.15 108.12-1.32 107.11-0.68 106.09-0.05 104.19-0.05L104.19-0.05 103.33-0.05Q99.89-0.05 99.89-2.78L99.89-2.78Q99.89-2.98 100.09-4.05 100.28-5.13 100.31-7.98L100.31-7.98 100.45-13.82 100.48-14.28Q100.48-14.75 100.48-15.21L100.48-15.21 100.5-16.14Q100.5-16.6 100.5-17.07L100.5-17.07 100.53-17.53Q100.53-17.99 100.53-18.46L100.53-18.46 100.55-19.38Q100.55-19.85 100.55-20.31L100.55-20.31 100.58-21.24 100.58-22.19 100.6-23.12 100.6-27.71Q100.6-30.49 100.11-31.91 99.62-33.33 99.62-33.74ZM131.09-10.25Q126.65-20.07 126.65-21.24 126.65-22.41 127.5-22.9 128.35-23.39 130.11-23.39 131.87-23.39 132.63-21.66L132.63-21.66Q132.72-21.46 133.26-18.73 133.8-15.99 135.34-11.43 136.87-6.86 137.7-6.86L137.7-6.86Q137.9-6.86 138.39-7.5L138.39-7.5Q139.61-9.11 141.04-13.42 142.47-17.72 142.69-21.07L142.69-21.07Q142.78-22.51 143.03-22.92L143.03-22.92Q143.69-24.02 145.3-24.02L145.3-24.02 145.93-24.02Q148.15-24.02 148.15-22.29L148.15-22.29Q148.15-21.24 147.29-19.07 146.42-16.89 145.98-15.45L145.98-15.45Q141.95-1.93 140.1 1.84 138.24 5.62 136.03 7.7 133.82 9.79 131.53 9.79 129.23 9.79 129.23 8.33L129.23 8.33Q129.23 7.3 131.34 6.47 133.46 5.64 134.34 4.61L134.34 4.61Q136.04 2.64 136.04 0.12L136.04 0.12Q136.04-1.27 134.09-4.6 132.14-7.93 131.09-10.25L131.09-10.25ZM162.43-2.83L162.43-2.83 162.92-2.83Q165.39-2.83 166.97-5 168.56-7.18 168.56-10.5L168.56-10.5 168.61-11.04 168.63-11.87 168.63-12.96Q168.63-16.6 167.16-18.96 165.68-21.31 163.21-21.31L163.21-21.31 162.73-21.31Q160.31-21.31 158.66-18.92 157.01-16.53 157.01-12.57L157.01-12.57 157.01-10.91Q157.06-10.33 157.06-10.11L157.06-10.11Q157.06-7.32 158.6-5.08 160.14-2.83 162.43-2.83ZM174.15-12.62L174.15-12.62 174.15-11.82Q174.15-9.64 173.44-7.35L173.44-7.35Q172-2.69 167.78-0.66L167.78-0.66Q165.34 0.51 162.95 0.51L162.95 0.51 162.12 0.51Q159.85 0.51 157.89-0.42L157.89-0.42Q154.01-2.27 152.74-6.57L152.74-6.57Q152.06-8.84 152.06-11.18L152.06-11.18 152.06-12.43Q152.06-14.72 152.77-17.02L152.77-17.02Q154.16-21.56 158.28-23.51L158.28-23.51Q160.41-24.54 162.63-24.54L162.63-24.54 163.85-24.54Q165.95-24.54 168-23.63L168-23.63Q172.1-21.83 173.52-17.19L173.52-17.19Q174.15-15.14 174.15-12.62ZM184.87-21.9Q185.19-20.85 185.19-14.31 185.19-7.76 185.67-6.4L185.67-6.4Q186.7-3.52 189.34-3.52L189.34-3.52Q192.56-3.52 194-6.02 195.44-8.52 195.44-14.53L195.44-14.53 195.49-15.84 195.49-17.14Q195.49-18.46 195.3-19.82 195.12-21.19 195.12-21.34L195.12-21.34Q195.12-22.49 195.93-22.96 196.73-23.44 198.3-23.44 199.86-23.44 200.3-22.27L200.3-22.27Q200.59-21.48 200.59-14.51 200.59-7.54 201.35-4.42L201.35-4.42Q201.69-3.08 201.69-3.03L201.69-3.03 201.69-2.56Q201.69-1.93 200.94-1.39 200.2-0.85 198.83-0.85 197.47-0.85 196.2-1.45 194.93-2.05 194.65-2.05 194.36-2.05 192.07-1.17 189.77-0.29 187.99-0.29L187.99-0.29 187.36-0.29Q185.4-0.29 183.82-1.18 182.23-2.08 181.35-3.74L181.35-3.74Q180.06-6.2 180.06-14.21L180.06-14.21Q180.06-18.87 179.74-19.97L179.74-19.97Q179.72-20.07 179.42-20.85 179.13-21.63 179.13-21.95L179.13-21.95 179.13-22.49Q179.13-23.83 181.67-23.83L181.67-23.83 182.26-23.83Q184.28-23.83 184.87-21.9L184.87-21.9ZM219.07-19.29L219.07-19.29Q216.77-19.29 215.5-17 214.24-14.72 214.24-10.03L214.24-10.03Q214.24-7.96 214.41-7.09 214.58-6.23 214.93-4.94 215.29-3.66 215.29-2.72 215.29-1.78 214.16-1 213.04-0.22 211.23-0.22L211.23-0.22 210.82-0.24 210.38-0.24Q209.21-0.24 208.44-0.9 207.67-1.56 207.67-2.39L207.67-2.39 207.67-2.78Q207.67-2.95 208.13-4.39 208.6-5.83 208.67-7.18 208.74-8.52 208.74-10.79L208.74-10.79 208.74-13.5 208.72-13.94Q208.72-14.38 208.72-14.82L208.72-14.82 208.67-16.14Q208.64-16.58 208.64-17.86 208.64-19.14 208.19-20.3 207.74-21.46 207.74-21.8L207.74-21.8Q207.74-23.27 210.3-23.27 212.87-23.27 214.02-21.88L214.02-21.88Q214.36-21.46 214.74-21.46 215.11-21.46 215.99-22.07L215.99-22.07Q218.43-23.73 220.09-23.73L220.09-23.73 220.49-23.73Q221.95-23.73 222.72-23.07 223.49-22.41 223.49-21.31L223.49-21.31Q223.49-19.14 221.07-19.14L221.07-19.14Q220.12-19.29 219.07-19.29ZM256.98-13.84L256.98-13.84Q256.95-13.84 255.03-9.4 253.1-4.96 252.37-3.74L252.37-3.74Q250.92-1.34 249.44-1.34L249.44-1.34Q248.58-1.34 247.59-2.08 246.6-2.81 246.05-4.21 245.5-5.62 244.32-9.79 243.14-13.96 242.14-16.96 241.13-19.95 241.13-21.17L241.13-21.17Q241.13-23.39 242.77-23.39L242.77-23.39Q245.02-23.39 245.97-21.46L245.97-21.46Q245.99-21.41 247.82-14.49 249.66-7.57 250.8-7.57L250.8-7.57Q251.71-7.57 253.29-13.77L253.29-13.77Q253.76-15.55 254.1-18.37 254.44-21.19 254.56-21.48L254.56-21.48Q255.29-23.27 257.52-23.27 259.74-23.27 260.64-21.04L260.64-21.04Q261.01-20.14 261.3-18.09 261.59-16.04 262.3-13.38L262.3-13.38Q263.82-7.64 264.67-7.64L264.67-7.64Q265.65-7.64 267.45-13.87L267.45-13.87Q268.01-15.77 268.61-18.48 269.21-21.19 269.5-21.85L269.5-21.85Q270.21-23.41 271.81-23.41 273.41-23.41 273.41-21.34L273.41-21.34Q273.41-20.56 272.52-17.69 271.63-14.82 270.19-9.89 268.75-4.96 268.23-3.86 267.72-2.76 266.77-2.01 265.82-1.27 265.01-1.27L265.01-1.27Q263.57-1.27 262.56-2.78 261.54-4.3 259.41-9.07 257.27-13.84 256.98-13.84ZM286.27-3.08L286.27-3.08 287.03-3.08Q289.3-3.08 291.03-5.03L291.03-5.03Q291.99-6.1 291.99-9.03L291.99-9.03 292.01-9.35 292.01-9.96Q292.01-11.79 290.5-11.79L290.5-11.79 289.72-11.79 288.45-11.69 287.79-11.62Q285.54-11.62 284.1-10.36 282.66-9.11 282.66-7.37L282.66-7.37 282.66-6.52Q282.66-5.2 283.6-4.14 284.54-3.08 286.27-3.08ZM298.63-1.9L298.63-1.9Q298.63-0.27 295.33-0.27L295.33-0.27Q294.75-0.27 293.2-0.87 291.64-1.46 291.24-1.46 290.84-1.46 288.59-0.62 286.35 0.22 284.64 0.22L284.64 0.22 284.08 0.22Q281.42 0.22 279.49-1.53 277.56-3.27 277.56-6.3L277.56-6.3Q277.56-12.45 285.35-13.96L285.35-13.96Q290.4-14.97 290.57-15.04L290.57-15.04Q291.77-15.65 291.77-17.25 291.77-18.85 290.75-19.93 289.74-21.02 287.99-21.02 286.25-21.02 283.88-19.84 281.51-18.65 280.63-18.65L280.63-18.65Q279.05-18.65 279.05-20.83L279.05-20.83Q279.05-22.19 281.55-23.41 284.05-24.63 287.25-24.63L287.25-24.63 288.47-24.63Q290.86-24.63 292.72-23.73 294.57-22.83 295.55-21.29L295.55-21.29Q296.94-19.12 296.94-11.35L296.94-11.35Q296.94-6.96 297.13-5.88 297.31-4.81 297.97-3.72 298.63-2.64 298.63-1.9ZM307.66-10.25Q303.21-20.07 303.21-21.24 303.21-22.41 304.07-22.9 304.92-23.39 306.68-23.39 308.44-23.39 309.2-21.66L309.2-21.66Q309.29-21.46 309.83-18.73 310.37-15.99 311.91-11.43 313.44-6.86 314.27-6.86L314.27-6.86Q314.47-6.86 314.96-7.5L314.96-7.5Q316.18-9.11 317.61-13.42 319.03-17.72 319.25-21.07L319.25-21.07Q319.35-22.51 319.6-22.92L319.6-22.92Q320.26-24.02 321.87-24.02L321.87-24.02 322.5-24.02Q324.72-24.02 324.72-22.29L324.72-22.29Q324.72-21.24 323.86-19.07 322.99-16.89 322.55-15.45L322.55-15.45Q318.52-1.93 316.67 1.84 314.81 5.62 312.6 7.7 310.39 9.79 308.1 9.79 305.8 9.79 305.8 8.33L305.8 8.33Q305.8 7.3 307.91 6.47 310.03 5.64 310.91 4.61L310.91 4.61Q312.61 2.64 312.61 0.12L312.61 0.12Q312.61-1.27 310.66-4.6 308.71-7.93 307.66-10.25L307.66-10.25ZM352.72-0.1L352.72-0.1 351.79-0.1Q348.28-0.1 346.74-3.13L346.74-3.13Q345.47-5.59 345.47-11.23 345.47-16.87 344.86-18.97L344.86-18.97Q344.64-19.75 343.64-20.75 342.64-21.75 342.64-22.49L342.64-22.49 342.64-22.8Q342.64-23.44 343.79-24.19 344.93-24.95 345.12-25.28 345.3-25.61 345.85-27.65 346.4-29.69 347-30.51 347.59-31.32 348.61-31.32 349.62-31.32 350.05-30.74 350.48-30.15 350.9-28.32 351.33-26.49 351.84-25.84 352.36-25.2 354.33-24.49 356.31-23.78 356.31-22.73L356.31-22.73Q356.31-21.8 354.25-21.07 352.18-20.34 351.65-19.26L351.65-19.26Q350.62-17.19 350.62-11.91 350.62-6.64 351.53-5.46 352.43-4.27 354.47-4 356.51-3.74 356.51-2.47L356.51-2.47Q356.51-1.49 355.35-0.79 354.19-0.1 352.72-0.1ZM371.57-2.83L371.57-2.83 372.05-2.83Q374.52-2.83 376.11-5 377.69-7.18 377.69-10.5L377.69-10.5 377.74-11.04 377.77-11.87 377.77-12.96Q377.77-16.6 376.29-18.96 374.81-21.31 372.35-21.31L372.35-21.31 371.86-21.31Q369.44-21.31 367.79-18.92 366.15-16.53 366.15-12.57L366.15-12.57 366.15-10.91Q366.2-10.33 366.2-10.11L366.2-10.11Q366.2-7.32 367.73-5.08 369.27-2.83 371.57-2.83ZM383.29-12.62L383.29-12.62 383.29-11.82Q383.29-9.64 382.58-7.35L382.58-7.35Q381.14-2.69 376.91-0.66L376.91-0.66Q374.47 0.51 372.08 0.51L372.08 0.51 371.25 0.51Q368.98 0.51 367.03-0.42L367.03-0.42Q363.14-2.27 361.87-6.57L361.87-6.57Q361.19-8.84 361.19-11.18L361.19-11.18 361.19-12.43Q361.19-14.72 361.9-17.02L361.9-17.02Q363.29-21.56 367.42-23.51L367.42-23.51Q369.54-24.54 371.76-24.54L371.76-24.54 372.98-24.54Q375.08-24.54 377.13-23.63L377.13-23.63Q381.23-21.83 382.65-17.19L382.65-17.19Q383.29-15.14 383.29-12.62ZM417.78-13.84L417.78-13.84Q417.75-13.84 415.82-9.4 413.9-4.96 413.16-3.74L413.16-3.74Q411.72-1.34 410.23-1.34L410.23-1.34Q409.38-1.34 408.39-2.08 407.4-2.81 406.85-4.21 406.3-5.62 405.12-9.79 403.93-13.96 402.93-16.96 401.93-19.95 401.93-21.17L401.93-21.17Q401.93-23.39 403.57-23.39L403.57-23.39Q405.81-23.39 406.77-21.46L406.77-21.46Q406.79-21.41 408.62-14.49 410.45-7.57 411.6-7.57L411.6-7.57Q412.5-7.57 414.09-13.77L414.09-13.77Q414.55-15.55 414.9-18.37 415.24-21.19 415.36-21.48L415.36-21.48Q416.09-23.27 418.31-23.27 420.54-23.27 421.44-21.04L421.44-21.04Q421.81-20.14 422.1-18.09 422.39-16.04 423.1-13.38L423.1-13.38Q424.61-7.64 425.47-7.64L425.47-7.64Q426.44-7.64 428.25-13.87L428.25-13.87Q428.81-15.77 429.41-18.48 430.01-21.19 430.3-21.85L430.3-21.85Q431.01-23.41 432.61-23.41 434.21-23.41 434.21-21.34L434.21-21.34Q434.21-20.56 433.32-17.69 432.43-14.82 430.99-9.89 429.54-4.96 429.03-3.86 428.52-2.76 427.57-2.01 426.62-1.27 425.81-1.27L425.81-1.27Q424.37-1.27 423.36-2.78 422.34-4.3 420.21-9.07 418.07-13.84 417.78-13.84ZM450.86-14.38L450.86-14.38Q452.52-14.38 453.2-14.89 453.88-15.41 453.88-16.06L453.88-16.06 453.88-17.09Q453.88-18.85 452.59-20 451.3-21.14 449.76-21.14L449.76-21.14 449.12-21.14Q446.9-21.14 445.24-19.27 443.58-17.41 443.58-15.19L443.58-15.19 443.58-14.77Q443.58-13.92 445.14-13.92L445.14-13.92 445.7-13.92 445.85-13.94 447.68-14.06 448.9-14.16 449.73-14.26Q449.95-14.28 450.33-14.33 450.71-14.38 450.86-14.38ZM449.85 0.32L449.85 0.32 448.78 0.32Q443.9 0.32 440.94-2.98L440.94-2.98Q439.63-4.44 438.89-6.7 438.16-8.96 438.16-11.18L438.16-11.18 438.16-12.28Q438.16-14.5 439.09-16.94L439.09-16.94Q440.87-21.7 445.14-23.41L445.14-23.41Q447.34-24.32 449.81-24.32L449.81-24.32 450.34-24.32Q453.76-24.32 455.98-22.24L455.98-22.24Q457.25-21.04 457.9-19.37 458.55-17.7 458.55-16.36L458.55-16.36Q458.55-13.4 456.69-12.5L456.69-12.5Q455.42-11.89 450.89-11.35 446.36-10.82 445.92-10.69L445.92-10.69Q443.8-10.16 443.8-8.79L443.8-8.79Q443.8-6.42 445.97-4.83L445.97-4.83Q447.56-3.66 450.51-3.66L450.51-3.66Q451.64-3.66 454.15-4.37 456.67-5.08 456.91-5.08L456.91-5.08Q458.18-5.08 458.18-3.93L458.18-3.93Q458.18-2.49 455.46-1.09 452.74 0.32 449.85 0.32ZM471.97-3.08L471.97-3.08 472.73-3.08Q475-3.08 476.73-5.03L476.73-5.03Q477.68-6.1 477.68-9.03L477.68-9.03 477.71-9.35 477.71-9.96Q477.71-11.79 476.2-11.79L476.2-11.79 475.41-11.79 474.14-11.69 473.49-11.62Q471.24-11.62 469.8-10.36 468.36-9.11 468.36-7.37L468.36-7.37 468.36-6.52Q468.36-5.2 469.3-4.14 470.24-3.08 471.97-3.08ZM484.33-1.9L484.33-1.9Q484.33-0.27 481.03-0.27L481.03-0.27Q480.44-0.27 478.89-0.87 477.34-1.46 476.94-1.46 476.54-1.46 474.29-0.62 472.04 0.22 470.34 0.22L470.34 0.22 469.77 0.22Q467.11 0.22 465.18-1.53 463.26-3.27 463.26-6.3L463.26-6.3Q463.26-12.45 471.04-13.96L471.04-13.96Q476.1-14.97 476.27-15.04L476.27-15.04Q477.46-15.65 477.46-17.25 477.46-18.85 476.45-19.93 475.44-21.02 473.69-21.02 471.95-21.02 469.58-19.84 467.21-18.65 466.33-18.65L466.33-18.65Q464.74-18.65 464.74-20.83L464.74-20.83Q464.74-22.19 467.25-23.41 469.75-24.63 472.95-24.63L472.95-24.63 474.17-24.63Q476.56-24.63 478.42-23.73 480.27-22.83 481.25-21.29L481.25-21.29Q482.64-19.12 482.64-11.35L482.64-11.35Q482.64-6.96 482.82-5.88 483.01-4.81 483.67-3.72 484.33-2.64 484.33-1.9ZM490.45-33.74L490.45-33.74Q490.45-35.67 493.62-35.67L493.62-35.67 494.06-35.67Q496.33-35.67 496.63-33.79L496.63-33.79 496.63-28.49 496.58-26.66 496.58-25.76 496.51-22.97 496.51-22.07 496.48-21.58Q496.48-21.12 496.48-20.65L496.48-20.65 496.46-20.19Q496.46-19.73 496.46-19.26L496.46-19.26 496.43-18.8 496.43-16.5 496.51-13.38Q496.53-12.94 496.53-11.16 496.53-9.38 497.01-7.36 497.48-5.35 498.21-4.16 498.95-2.98 498.95-2.15 498.95-1.32 497.93-0.68 496.92-0.05 495.02-0.05L495.02-0.05 494.16-0.05Q490.72-0.05 490.72-2.78L490.72-2.78Q490.72-2.98 490.91-4.05 491.11-5.13 491.13-7.98L491.13-7.98 491.28-13.82 491.3-14.28Q491.3-14.75 491.3-15.21L491.3-15.21 491.33-16.14Q491.33-16.6 491.33-17.07L491.33-17.07 491.35-17.53Q491.35-17.99 491.35-18.46L491.35-18.46 491.38-19.38Q491.38-19.85 491.38-20.31L491.38-20.31 491.4-21.24 491.4-22.19 491.43-23.12 491.43-27.71Q491.43-30.49 490.94-31.91 490.45-33.33 490.45-33.74ZM513.57-0.1L513.57-0.1 512.64-0.1Q509.12-0.1 507.59-3.13L507.59-3.13Q506.32-5.59 506.32-11.23 506.32-16.87 505.71-18.97L505.71-18.97Q505.49-19.75 504.49-20.75 503.49-21.75 503.49-22.49L503.49-22.49 503.49-22.8Q503.49-23.44 504.63-24.19 505.78-24.95 505.96-25.28 506.15-25.61 506.7-27.65 507.24-29.69 507.84-30.51 508.44-31.32 509.45-31.32 510.47-31.32 510.89-30.74 511.32-30.15 511.75-28.32 512.18-26.49 512.69-25.84 513.2-25.2 515.18-24.49 517.16-23.78 517.16-22.73L517.16-22.73Q517.16-21.8 515.09-21.07 513.03-20.34 512.49-19.26L512.49-19.26Q511.47-17.19 511.47-11.91 511.47-6.64 512.37-5.46 513.28-4.27 515.31-4 517.35-3.74 517.35-2.47L517.35-2.47Q517.35-1.49 516.19-0.79 515.03-0.1 513.57-0.1ZM545.16-3.52L545.16-3.52Q545.16-0.76 542.08-0.76L542.08-0.76Q540.69-0.76 540.04-1.25 539.4-1.73 539.4-2.91L539.4-2.91 539.42-3.44 539.47-4 539.47-5.3 539.25-11.25Q539.25-16.26 538.17-18.03 537.1-19.8 534.59-19.8L534.59-19.8Q533.24-19.8 531.96-18.97 530.68-18.14 529.95-16.48 529.21-14.82 529.21-7.57L529.21-7.57Q529.21-6.57 529.37-5.08 529.53-3.59 529.53-3.54L529.53-3.54Q529.53-2.2 528.69-1.35 527.85-0.51 526.19-0.51L526.19-0.51 525.53-0.51Q523.01-0.51 523.01-2.47L523.01-2.47 523.01-3.13Q523.01-3.52 523.26-4.47L523.26-4.47 523.62-5.81Q524.06-7.89 524.06-14.31L524.06-14.31 524.06-23.56 524.19-29 524.21-29.76Q524.23-30.52 524.23-31.2 524.23-31.88 524.14-32.45L524.14-32.45 524.01-32.96Q523.84-33.72 523.84-33.86L523.84-33.86Q523.84-35.01 525.21-35.01L525.21-35.01 525.85-35.01Q528.34-35.01 528.97-32.91L528.97-32.91Q529.26-31.98 529.36-28.87 529.46-25.76 529.64-24.18 529.83-22.61 530.68-22.61L530.68-22.61Q531-22.61 531.58-22.8L531.58-22.8 532.12-23.02Q534.66-24.15 536.66-24.15L536.66-24.15Q541.1-24.15 542.86-20.48L542.86-20.48Q544.08-17.94 544.08-10.52L544.08-10.52Q544.08-7.81 544.62-5.92 545.16-4.03 545.16-3.52Z" opacity="1" transform="matrix(1,0,0,1,0,0)" fill="#ffffff" class="slogan-text-1" data-fill-palette-color="secondary" id="text-1"></path></svg></g></svg></g></svg></g></svg></g><g><svg viewBox="0 0 215.52214096292437 135.84075152348342" height="135.84075152348342" width="215.52214096292437"><g><svg xmlns="http://www.w3.org/2000/svg" xmlns:xlink="http://www.w3.org/1999/xlink" version="1.0" x="0" y="0" viewBox="10 23.55256653346701 80.03885980351252 50.447433466532985" enable-background="new 0 0 100 100" xml:space="preserve" height="135.84075152348342" width="215.52214096292437" class="icon-icon-0" data-fill-palette-color="accent" id="icon-0"><path d="M51.427 74H17.305C13.482 74 10 70.562 10 66.787V53.436C10 49.407 13.714 47 17.305 47H51V49H17.305C14.697 49 12 50.659 12 53.436V66.788C12 69.467 14.578 72 17.305 72H51.427C54.29 72 56 69.35 56 66.787V51H58V66.787C58 70.832 55.113 74 51.427 74" fill="#ffffff" data-fill-palette-color="accent"></path><path d="M51.427 70H17.305C15.514 70 14 68.528 14 66.787V53.436C14 51.605 15.544 50 17.305 50H48V52H17.305C16.659 52 16 52.725 16 53.436V66.788C16 67.434 16.61 68 17.305 68H51.427C51.669 68 52 68 52 66.787V56H54V66.787C54 69.687 52.201 70 51.427 70" fill="#ffffff" data-fill-palette-color="accent"></path><path d="M63.227 72.938A6.9 6.9 0 0 1 59.261 71.679L58.004 71.009 58.945 69.243 60.369 70.013A4.88 4.88 0 0 0 64.047 70.869 4.9 4.9 0 0 0 67.254 68.874L87.119 41.131A4.94 4.94 0 0 0 85.98 34.246L75.124 26.474A4.87 4.87 0 0 0 71.446 25.618 4.9 4.9 0 0 0 68.239 27.613L48.374 55.355A4.94 4.94 0 0 0 49.513 62.239L53.127 64.866 51.951 66.483 48.343 63.861C45.24 61.639 44.522 57.299 46.748 54.191L66.613 26.448C68.839 23.338 73.178 22.621 76.288 24.846L87.144 32.618A6.943 6.943 0 0 1 88.745 42.294L68.88 70.038A6.9 6.9 0 0 1 64.374 72.843 7 7 0 0 1 63.227 72.938" fill="#ffffff" data-fill-palette-color="accent"></path><path d="M63.234 69.227A3.2 3.2 0 0 1 61.364 68.623L58.632 66.668 59.796 65.041 62.528 66.997C62.794 67.187 63.12 67.263 63.442 67.209 63.765 67.156 64.048 66.98 64.238 66.715L84.103 38.972A1.23 1.23 0 0 0 83.82 37.261L72.965 29.49A1.2 1.2 0 0 0 72.051 29.278 1.22 1.22 0 0 0 71.255 29.772L51.39 57.515A1.22 1.22 0 0 0 51.178 58.428C51.232 58.751 51.407 59.034 51.673 59.224L53.174 60.452 51.906 61.999 50.457 60.811C49.809 60.35 49.346 59.606 49.205 58.755A3.2 3.2 0 0 1 49.764 56.351L69.629 28.608A3.2 3.2 0 0 1 71.725 27.304 3.2 3.2 0 0 1 74.13 27.864L84.985 35.635A3.23 3.23 0 0 1 85.73 40.136L65.864 67.879A3.2 3.2 0 0 1 63.768 69.183 3.3 3.3 0 0 1 63.234 69.227" fill="#ffffff" data-fill-palette-color="accent"></path></svg></g></svg></g></svg></g><defs></defs></svg><rect width="395.52" height="83.05379032729464" fill="none" stroke="none" visibility="hidden"></rect></g></svg></g></svg>